<?xml version="1.0" encoding="UTF-8"?>
<!DOCTYPE svg PUBLIC "-//W3C//DTD SVG 1.1//EN" "http://www.w3.org/Graphics/SVG/1.1/DTD/svg11.dtd">
<svg version="1.1" xmlns="http://www.w3.org/2000/svg" xmlns:xlink="http://www.w3.org/1999/xlink" x="0px" y="0px" width="128" height="128" viewBox="0, 0, 128, 128">
  <g id="Background">
    <rect x="0" y="0" width="128" height="128" fill="#000000" fill-opacity="0"/>
  </g>
  <g id="Background">
    <path d="M18.095,6 L109.907,6 C116.561,6 122,11.439 122,18.095 L122,109.907 C122,116.561 116.561,122 109.907,122 L18.095,122 C11.441,122 6,116.561 6,109.907 L6,18.095 C6,11.439 11.441,6 18.095,6" fill="#727272"/>
    <path d="M81.651,42.587 C81.634,41.957 81.071,41.462 80.488,41.486 C77.185,41.486 73.897,41.486 70.601,41.486 C70.056,41.472 69.518,41.91 69.481,42.505 C69.444,44.417 69.508,46.326 69.458,48.245 L64,48.24 L58.543,48.245 C58.493,46.326 58.558,44.417 58.521,42.505 C58.484,41.91 57.945,41.472 57.401,41.486 C54.105,41.486 50.816,41.486 47.514,41.486 C46.93,41.462 46.368,41.957 46.35,42.587 C46.341,45.24 46.35,47.889 46.35,50.523 C46.386,50.77 46.204,50.921 46.08,51.09 C43.391,54.511 40.728,57.926 38.051,61.329 C36.677,63.101 35.243,64.831 33.964,66.678 C32.767,68.448 31.612,70.303 31.037,72.408 C30.392,74.746 30.288,77.203 30.333,79.615 C30.333,81.753 30.325,83.908 30.333,86.05 C30.333,86.644 30.885,87.127 31.438,87.087 L64,87.09 L96.562,87.087 C97.115,87.127 97.667,86.644 97.667,86.05 C97.677,83.908 97.667,81.753 97.667,79.615 C97.714,77.203 97.609,74.746 96.965,72.408 C96.39,70.303 95.235,68.448 94.038,66.678 C92.758,64.831 91.324,63.101 89.95,61.329 C87.274,57.926 84.611,54.511 81.922,51.09 C81.798,50.921 81.616,50.77 81.651,50.523 C81.651,47.889 81.661,45.24 81.651,42.587" fill="#EBECEC"/>
    <path d="M106.3,28.639 C106.733,28.754 107.094,29 107.281,29.319 C109.583,32.649 111.57,36.174 112.501,39.911 C113.004,41.815 113.063,43.779 112.981,45.715 C112.941,47.322 112.552,49.034 111.236,50.331 C110.158,51.419 108.451,51.989 106.761,52.268 C104.655,52.629 102.504,52.629 100.363,52.561 C97.896,52.455 95.417,52.178 93.106,51.469 C90.881,50.816 88.818,49.706 87.511,48.131 C86.142,46.505 85.653,44.528 85.711,42.595 C85.676,41.043 85.94,39.381 85.036,37.927 C84.195,36.508 82.388,35.617 80.538,35.119 C72.792,32.968 55.21,32.968 47.464,35.119 C45.614,35.617 43.806,36.508 42.965,37.927 C42.062,39.381 42.326,41.043 42.29,42.595 C42.348,44.528 41.86,46.505 40.491,48.131 C39.184,49.706 37.12,50.816 34.895,51.469 C32.585,52.178 30.105,52.455 27.639,52.561 C25.498,52.629 23.345,52.629 21.241,52.268 C19.551,51.989 17.843,51.419 16.765,50.331 C15.449,49.034 15.061,47.322 15.021,45.715 C14.938,43.779 14.998,41.815 15.501,39.911 C16.432,36.174 18.418,32.649 20.721,29.319 C20.908,29 21.269,28.754 21.702,28.639 C45.413,21.159 82.587,21.159 106.3,28.639" fill="#EBECEC"/>
    <path d="M64,54.222 C79.894,54.222 92.781,67.111 92.781,83.003 C92.781,98.897 79.894,111.784 64,111.784 C48.108,111.784 35.221,98.897 35.221,83.003 C35.221,67.111 48.108,54.222 64,54.222" fill="#727272"/>
    <path d="M64.005,58.301 C50.359,58.301 39.303,69.362 39.303,83.003 C39.303,96.644 50.359,107.706 64.005,107.706 C77.646,107.706 88.703,96.644 88.703,83.003 C88.703,69.362 77.646,58.301 64.005,58.301 z M66.773,99.121 L66.773,103.198 L60.94,103.198 L60.94,99.549 C58.137,99.307 54.438,98.294 51.715,96.796 L53.642,90.069 C56.726,91.27 61.237,92.781 64.562,92.056 C67.472,91.421 68.211,88.803 64.781,87.329 C61.886,86.032 51.921,84.671 51.921,76.341 C51.921,72.888 54.511,68.142 60.94,66.736 L60.94,62.598 L66.773,62.598 L66.773,66.394 C69.272,66.571 71.824,67.034 74.773,67.955 C74.482,69.239 73.203,74.82 73.203,74.82 C71.166,74.131 67.846,72.919 64.659,73.103 C60.713,73.322 60.43,76.207 63.083,77.537 C68.54,80.003 76.441,82.099 76.441,89.457 C76.451,95.143 72.02,98.381 66.773,99.121" fill="#EBECEC"/>
  </g>
  <defs/>
</svg>
